<svg xmlns="http://www.w3.org/2000/svg" viewBox="0 0 511.997 511.997"><path d="M135.005 165.806c-.576-3.57-3.662-6.299-7.395-6.299-3.733 0-6.819 2.729-7.395 6.299-3.571.575-6.3 3.662-6.3 7.395 0 3.733 2.729 6.82 6.3 7.395.576 3.571 3.662 6.3 7.395 6.3 3.733 0 6.82-2.729 7.395-6.3 3.571-.576 6.3-3.662 6.3-7.395 0-3.733-2.729-6.819-6.3-7.395zm62.497 0c-.576-3.57-3.662-6.299-7.395-6.299-3.733 0-6.819 2.729-7.395 6.299-3.571.575-6.3 3.662-6.3 7.395 0 3.733 2.73 6.82 6.3 7.395 1.349 8.367 13.444 8.357 14.791 0 8.367-1.348 8.356-13.443-.001-14.79zm131.783 0c-.576-3.57-3.662-6.299-7.395-6.299-3.733 0-6.819 2.729-7.395 6.299-3.57.576-6.299 3.662-6.299 7.395 0 3.733 2.729 6.819 6.299 7.395.575 3.571 3.662 6.3 7.395 6.3 3.733 0 6.82-2.729 7.395-6.3 3.571-.576 6.3-3.662 6.3-7.395 0-3.733-2.73-6.819-6.3-7.395zm62.497 0c-.576-3.57-3.662-6.299-7.395-6.299-3.733 0-6.819 2.729-7.395 6.299-3.57.576-6.299 3.662-6.299 7.395 0 3.733 2.729 6.819 6.299 7.395.576 3.571 3.662 6.3 7.395 6.3 3.733 0 6.82-2.729 7.395-6.3 8.367-1.348 8.357-13.443 0-14.79z"/><path d="M496.28 236.195a55.134 55.134 0 00-15.026-19.442v-85.07a7.5 7.5 0 00-7.5-7.5 7.499 7.499 0 00-7.5 7.5v76.221c-12.016-4.699-21.058-3.715-33.778-3.732 6.931-11.604 3.35-20.563 4.325-46.256a30.489 30.489 0 00-3.791-14.757c.083-.076.169-.145.249-.225l5.798-5.798a7.5 7.5 0 00-10.607-10.607l-5.653 5.653a30.492 30.492 0 00-16.68-4.95c-107.979 1.123-108.293-2.538-119.814 3.321l-4.024-4.024a7.5 7.5 0 00-10.607 10.607l3.294 3.294a30.502 30.502 0 00-5.491 17.486c.976 25.712-2.604 34.656 4.325 46.256h-35.604c6.931-11.604 3.35-20.563 4.325-46.256a30.492 30.492 0 00-4.869-16.554l4.226-4.226a7.5 7.5 0 00-10.607-10.607l-4.561 4.561a30.49 30.49 0 00-14.873-3.858H105.881a30.495 30.495 0 00-15.727 4.349l-5.052-5.052a7.5 7.5 0 00-10.607 10.607l5.052 5.052a30.496 30.496 0 00-4.35 15.728v30.571a30.493 30.493 0 004.325 15.684c-12.915.071-21.69-.996-33.778 3.732V90.861c0-15.901 12.938-28.838 28.839-28.838h362.834c15.901 0 28.839 12.937 28.839 28.838v5.822c0 4.143 3.357 7.5 7.5 7.5a7.5 7.5 0 007.5-7.5v-5.822c0-24.172-19.666-43.838-43.839-43.838H74.582c-24.173 0-43.839 19.666-43.839 43.838v125.891a55.137 55.137 0 00-15.027 19.444C6.676 238.657 0 246.917 0 256.727v140c0 10.63 7.837 19.441 18.031 21.021l-6.599 16.843c-5.719 14.599 5.106 30.383 20.721 30.383 9.227 0 17.363-5.552 20.729-14.143l12.853-32.806h301.153c4.143 0 7.5-3.357 7.5-7.5a7.5 7.5 0 00-7.5-7.5H77.707c-2.2-16.635-16.466-29.517-33.692-29.517H15v-64.045h95.11c4.143 0 7.5-3.357 7.5-7.5a7.5 7.5 0 00-7.5-7.5H15v-37.736c0-3.932 3.398-5.633 3.298-5.537 2.314-1.259 472.944-.739 473.044-.729 3.173.323 5.657 3.011 5.657 6.266v37.736H145.11a7.5 7.5 0 00-7.5 7.5c0 4.143 3.357 7.5 7.5 7.5h351.889v64.045h-29.017c-17.226 0-31.491 12.883-33.692 29.517h-32.403a7.5 7.5 0 00-7.5 7.5c0 4.143 3.357 7.5 7.5 7.5h44.376l12.852 32.805c3.365 8.592 11.502 14.144 20.729 14.144 2.781 0 5.513-.518 8.116-1.538 11.427-4.479 17.08-17.418 12.603-28.844l-6.599-16.844c10.196-1.58 18.033-10.391 18.033-21.021v-140c.002-9.811-6.674-18.07-15.717-20.532zM38.915 445.36a7.22 7.22 0 01-6.762 4.614c-5.078 0-8.62-5.147-6.754-9.911l8.634-22.037h15.591L38.915 445.36zm5.101-56.853c8.933.001 16.444 6.198 18.463 14.518h-41.18A6.305 6.305 0 0115 396.726v-8.219h29.016zm240.46-230.59c0-8.648 7.036-15.685 15.685-15.685h105.957c8.648 0 15.685 7.036 15.685 15.685v30.571c0 8.648-7.036 15.684-15.685 15.684H300.16c-8.648 0-15.684-7.036-15.684-15.684v-30.571zm-194.28 0c0-8.648 7.036-15.685 15.685-15.685h105.956c8.648 0 15.685 7.036 15.685 15.685v30.571c0 8.648-7.036 15.684-15.685 15.684H105.881c-8.649 0-15.685-7.036-15.685-15.684v-30.571zm-56.681 77.511c7.091-9.566 18.124-15.551 29.931-16.19 2.632-.145 383.871-.082 385.504.023 11.815.772 22.604 6.82 29.533 16.167H33.515zM482.488 449.47a7.226 7.226 0 01-2.643.504 7.22 7.22 0 01-6.763-4.615l-10.709-27.333h15.591l8.634 22.038c1.461 3.725-.383 7.945-4.11 9.406zm14.51-52.743a6.306 6.306 0 01-6.299 6.299h-41.18c2.019-8.32 9.531-14.518 18.463-14.518h29.016v8.219z"/></svg>