<?xml version="1.0" encoding="UTF-8"?>
<!DOCTYPE svg PUBLIC "-//W3C//DTD SVG 1.1//EN" "http://www.w3.org/Graphics/SVG/1.1/DTD/svg11.dtd">
<svg xmlns="http://www.w3.org/2000/svg" version="1.1" width="512px" height="512px" style="shape-rendering:geometricPrecision; text-rendering:geometricPrecision; image-rendering:optimizeQuality; fill-rule:evenodd; clip-rule:evenodd" xmlns:xlink="http://www.w3.org/1999/xlink">
<g><path style="opacity:0.942" fill="#000000" d="M 511.5,202.5 C 511.5,206.5 511.5,210.5 511.5,214.5C 509.083,220.899 504.417,224.732 497.5,226C 336.167,226.667 174.833,226.667 13.5,226C 6.58324,224.732 1.91658,220.899 -0.5,214.5C -0.5,210.5 -0.5,206.5 -0.5,202.5C 27.8036,158.007 55.9702,113.34 84,68.5C 88.2074,61.2896 94.3741,56.7896 102.5,55C 204.5,54.3333 306.5,54.3333 408.5,55C 416.626,56.7896 422.793,61.2896 427,68.5C 455.03,113.34 483.196,158.007 511.5,202.5 Z M 105.5,72.5 C 205.501,72.3333 305.501,72.5 405.5,73C 407.624,74.1217 409.457,75.6217 411,77.5C 438.375,121.084 465.875,164.584 493.5,208C 334.833,208.667 176.167,208.667 17.5,208C 45.125,164.584 72.625,121.084 100,77.5C 101.73,75.5981 103.563,73.9314 105.5,72.5 Z"/></g>
<g><path style="opacity:0.868" fill="#000000" d="M 141.5,88.5 C 150.478,88.3098 154.311,92.6431 153,101.5C 150.103,106.155 145.937,107.655 140.5,106C 133.631,99.7239 133.965,93.8905 141.5,88.5 Z"/></g>
<g><path style="opacity:0.864" fill="#000000" d="M 218.5,88.5 C 226.986,88.1514 230.82,92.1514 230,100.5C 227.549,106.089 223.383,107.922 217.5,106C 212.845,103.103 211.345,98.9367 213,93.5C 214.73,91.5981 216.563,89.9314 218.5,88.5 Z"/></g>
<g><path style="opacity:0.864" fill="#000000" d="M 286.5,88.5 C 295.53,88.3583 299.363,92.6916 298,101.5C 295.103,106.155 290.937,107.655 285.5,106C 278.642,99.6759 278.976,93.8426 286.5,88.5 Z"/></g>
<g><path style="opacity:0.864" fill="#000000" d="M 363.5,88.5 C 371.986,88.1514 375.82,92.1514 375,100.5C 372.598,106.092 368.431,107.925 362.5,106C 357.931,103.459 356.431,99.6253 358,94.5C 359.36,91.9774 361.193,89.9774 363.5,88.5 Z"/></g>
<g><path style="opacity:0.864" fill="#000000" d="M 123.5,131.5 C 133.107,129.942 137.274,133.942 136,143.5C 133.647,148.426 129.814,150.26 124.5,149C 118.516,145.637 117.016,140.803 120,134.5C 121.145,133.364 122.312,132.364 123.5,131.5 Z"/></g>
<g><path style="opacity:0.871" fill="#000000" d="M 208.5,131.5 C 218.659,130.158 222.826,134.491 221,144.5C 216.052,150.755 210.718,151.088 205,145.5C 202.78,139.991 203.947,135.324 208.5,131.5 Z"/></g>
<g><path style="opacity:0.871" fill="#000000" d="M 294.5,131.5 C 301.839,130.173 306.172,133.173 307.5,140.5C 304.611,149.519 299.111,151.519 291,146.5C 288.206,140.408 289.373,135.408 294.5,131.5 Z"/></g>
<g><path style="opacity:0.864" fill="#000000" d="M 379.5,131.5 C 389.107,129.942 393.274,133.942 392,143.5C 389.647,148.426 385.814,150.26 380.5,149C 374.516,145.637 373.016,140.803 376,134.5C 377.145,133.364 378.312,132.364 379.5,131.5 Z"/></g>
<g><path style="opacity:0.874" fill="#000000" d="M 109.5,173.5 C 118.557,174.945 121.39,179.945 118,188.5C 114.662,191.318 110.829,192.151 106.5,191C 101.391,187.634 100.224,183.134 103,177.5C 104.792,175.372 106.958,174.039 109.5,173.5 Z"/></g>
<g><path style="opacity:0.881" fill="#000000" d="M 203.5,173.5 C 210.73,174.298 213.897,178.298 213,185.5C 212.315,188.057 210.815,189.891 208.5,191C 197.486,192.652 193.653,188.152 197,177.5C 198.792,175.372 200.958,174.039 203.5,173.5 Z"/></g>
<g><path style="opacity:0.878" fill="#000000" d="M 305.5,173.5 C 313.457,174.294 316.623,178.628 315,186.5C 314.215,188.286 313.049,189.786 311.5,191C 300.133,193.082 295.966,188.582 299,177.5C 301.013,175.752 303.18,174.418 305.5,173.5 Z"/></g>
<g><path style="opacity:0.871" fill="#000000" d="M 399.5,173.5 C 407.457,174.294 410.623,178.628 409,186.5C 406.103,191.155 401.937,192.655 396.5,191C 391.391,187.634 390.224,183.134 393,177.5C 395.013,175.752 397.18,174.418 399.5,173.5 Z"/></g>
<g><path style="opacity:0.943" fill="#000000" d="M 511.5,262.5 C 511.5,266.5 511.5,270.5 511.5,274.5C 508.932,279.564 504.932,283.064 499.5,285C 336.5,285.667 173.5,285.667 10.5,285C 5.64549,282.643 1.97883,279.143 -0.5,274.5C -0.5,270.5 -0.5,266.5 -0.5,262.5C 2.97479,256.897 6.47479,251.231 10,245.5C 13.795,242.197 17.9617,241.697 22.5,244C 26.6622,247.478 27.4956,251.644 25,256.5C 23.0302,259.968 20.8635,263.301 18.5,266.5C 176.5,267.833 334.5,267.833 492.5,266.5C 488.896,261.791 486.229,256.624 484.5,251C 485.464,245.703 488.631,242.869 494,242.5C 496.814,242.408 499.147,243.408 501,245.5C 504.525,251.231 508.025,256.897 511.5,262.5 Z"/></g>
<g><path style="opacity:0.944" fill="#000000" d="M 511.5,322.5 C 511.5,326.167 511.5,329.833 511.5,333.5C 509.376,339.122 505.376,342.955 499.5,345C 336.833,345.667 174.167,345.667 11.5,345C 5.62437,342.955 1.62437,339.122 -0.5,333.5C -0.5,329.833 -0.5,326.167 -0.5,322.5C 3.17765,315.669 7.51098,309.169 12.5,303C 23.7901,300.707 27.9567,305.207 25,316.5C 22.5843,319.663 20.4177,322.996 18.5,326.5C 176.832,327.667 335.166,327.833 493.5,327C 489.203,322.376 486.203,317.043 484.5,311C 486.185,303.157 490.851,300.49 498.5,303C 503.489,309.169 507.822,315.669 511.5,322.5 Z"/></g>
<g><path style="opacity:0.946" fill="#000000" d="M 511.5,366.5 C 511.5,390.167 511.5,413.833 511.5,437.5C 508.25,447.247 501.583,453.413 491.5,456C 334.167,456.667 176.833,456.667 19.5,456C 9.41684,453.413 2.75018,447.247 -0.5,437.5C -0.5,413.833 -0.5,390.167 -0.5,366.5C 3.64648,361.106 8.64648,360.273 14.5,364C 15.717,365.648 16.5503,367.481 17,369.5C 17.3333,390.833 17.6667,412.167 18,433.5C 18.8333,435.667 20.3333,437.167 22.5,438C 177.833,438.667 333.167,438.667 488.5,438C 490.667,437.167 492.167,435.667 493,433.5C 493.333,412.167 493.667,390.833 494,369.5C 496.865,361.543 502.031,359.71 509.5,364C 510.066,364.995 510.733,365.828 511.5,366.5 Z"/></g>
<g><path style="opacity:0.928" fill="#000000" d="M 48.5,361.5 C 52.9503,361.142 56.4503,362.808 59,366.5C 59.6667,383.5 59.6667,400.5 59,417.5C 55.4901,422.447 50.9901,423.613 45.5,421C 43.5125,419.681 42.3459,417.848 42,415.5C 41.3333,399.833 41.3333,384.167 42,368.5C 43.0183,364.985 45.1849,362.652 48.5,361.5 Z"/></g>
<g><path style="opacity:0.927" fill="#000000" d="M 82.5,361.5 C 86.9869,361.161 90.4869,362.827 93,366.5C 93.6667,383.5 93.6667,400.5 93,417.5C 89.5603,422.458 85.0603,423.625 79.5,421C 77.5125,419.681 76.3459,417.848 76,415.5C 75.3333,399.833 75.3333,384.167 76,368.5C 77.0183,364.985 79.1849,362.652 82.5,361.5 Z"/></g>
<g><path style="opacity:0.929" fill="#000000" d="M 116.5,361.5 C 121.023,361.18 124.523,362.846 127,366.5C 127.667,383.5 127.667,400.5 127,417.5C 123.6,422.452 119.1,423.618 113.5,421C 111.683,419.2 110.516,417.034 110,414.5C 109.333,399.5 109.333,384.5 110,369.5C 110.612,365.403 112.779,362.736 116.5,361.5 Z"/></g>
<g><path style="opacity:0.929" fill="#000000" d="M 150.5,361.5 C 156.856,360.66 160.69,363.327 162,369.5C 162.667,384.5 162.667,399.5 162,414.5C 159.135,422.457 153.969,424.29 146.5,420C 145.874,419.25 145.374,418.416 145,417.5C 144.333,400.5 144.333,383.5 145,366.5C 146.352,364.251 148.185,362.584 150.5,361.5 Z"/></g>
<g><path style="opacity:0.927" fill="#000000" d="M 184.5,361.5 C 190.305,360.804 194.139,363.138 196,368.5C 196.667,384.167 196.667,399.833 196,415.5C 193.12,422.572 188.287,424.239 181.5,420.5C 180.667,419.5 179.833,418.5 179,417.5C 178.333,400.5 178.333,383.5 179,366.5C 180.406,364.256 182.239,362.59 184.5,361.5 Z"/></g>
<g><path style="opacity:0.927" fill="#000000" d="M 218.5,361.5 C 223.739,360.959 227.572,362.959 230,367.5C 230.667,383.833 230.667,400.167 230,416.5C 224.833,424.079 219.167,424.412 213,417.5C 212.333,400.5 212.333,383.5 213,366.5C 214.73,364.598 216.563,362.931 218.5,361.5 Z"/></g>
<g><path style="opacity:0.927" fill="#000000" d="M 252.5,361.5 C 257.814,360.74 261.647,362.74 264,367.5C 264.667,383.833 264.667,400.167 264,416.5C 260.96,422.368 256.46,423.868 250.5,421C 248.951,419.786 247.785,418.286 247,416.5C 246.333,400.167 246.333,383.833 247,367.5C 248.36,364.977 250.193,362.977 252.5,361.5 Z"/></g>
<g><path style="opacity:0.927" fill="#000000" d="M 287.5,361.5 C 292.421,361.043 295.921,363.043 298,367.5C 298.667,384.167 298.667,400.833 298,417.5C 291.833,424.412 286.167,424.079 281,416.5C 280.333,400.167 280.333,383.833 281,367.5C 282.436,364.558 284.603,362.558 287.5,361.5 Z"/></g>
<g><path style="opacity:0.927" fill="#000000" d="M 321.5,361.5 C 325.987,361.161 329.487,362.827 332,366.5C 332.667,383.5 332.667,400.5 332,417.5C 328.49,422.447 323.99,423.613 318.5,421C 316.513,419.681 315.346,417.848 315,415.5C 314.333,399.833 314.333,384.167 315,368.5C 316.018,364.985 318.185,362.652 321.5,361.5 Z"/></g>
<g><path style="opacity:0.929" fill="#000000" d="M 355.5,361.5 C 360.023,361.18 363.523,362.846 366,366.5C 366.667,383.5 366.667,400.5 366,417.5C 362.56,422.458 358.06,423.625 352.5,421C 350.683,419.2 349.516,417.034 349,414.5C 348.333,399.5 348.333,384.5 349,369.5C 349.612,365.403 351.779,362.736 355.5,361.5 Z"/></g>
<g><path style="opacity:0.929" fill="#000000" d="M 389.5,361.5 C 395.573,361.108 399.406,363.775 401,369.5C 401.667,384.5 401.667,399.5 401,414.5C 398.627,421.855 393.794,424.022 386.5,421C 385.299,420.097 384.465,418.931 384,417.5C 383.333,400.5 383.333,383.5 384,366.5C 385.352,364.251 387.185,362.584 389.5,361.5 Z"/></g>
<g><path style="opacity:0.927" fill="#000000" d="M 423.5,361.5 C 429.264,360.798 433.097,363.131 435,368.5C 435.667,384.167 435.667,399.833 435,415.5C 431.604,422.629 426.437,424.129 419.5,420C 418.874,419.25 418.374,418.416 418,417.5C 417.333,400.5 417.333,383.5 418,366.5C 419.352,364.251 421.185,362.584 423.5,361.5 Z"/></g>
<g><path style="opacity:0.928" fill="#000000" d="M 457.5,361.5 C 463.305,360.804 467.139,363.138 469,368.5C 469.667,384.167 469.667,399.833 469,415.5C 466.12,422.572 461.287,424.239 454.5,420.5C 453.667,419.5 452.833,418.5 452,417.5C 451.333,400.5 451.333,383.5 452,366.5C 453.73,364.598 455.563,362.931 457.5,361.5 Z"/></g>
</svg>
