<?xml version="1.0" encoding="UTF-8"?>
<!DOCTYPE svg PUBLIC "-//W3C//DTD SVG 1.1//EN" "http://www.w3.org/Graphics/SVG/1.1/DTD/svg11.dtd">
<svg xmlns="http://www.w3.org/2000/svg" version="1.1" width="512px" height="512px" style="shape-rendering:geometricPrecision; text-rendering:geometricPrecision; image-rendering:optimizeQuality; fill-rule:evenodd; clip-rule:evenodd" xmlns:xlink="http://www.w3.org/1999/xlink">
<g><path style="opacity:0.959" fill="#000000" d="M 178.5,67.5 C 229.834,67.3333 281.168,67.5 332.5,68C 359.511,68.9359 385.844,73.6025 411.5,82C 416.167,82.6667 420.833,82.6667 425.5,82C 434.855,77.5478 444.522,73.8811 454.5,71C 466.994,67.3573 479.327,67.6906 491.5,72C 504.754,81.5036 509.588,94.3369 506,110.5C 503.403,123.291 499.403,135.624 494,147.5C 493.333,151.833 493.333,156.167 494,160.5C 506.434,200.931 510.767,242.264 507,284.5C 505.305,309.142 500.472,333.142 492.5,356.5C 496.034,367.909 499.868,379.243 504,390.5C 506.8,401.098 507.133,411.765 505,422.5C 496.874,439.675 483.374,446.175 464.5,442C 450.722,439.074 437.389,434.741 424.5,429C 422.667,428.833 420.833,428.667 419,428.5C 405.584,431.895 392.084,435.062 378.5,438C 366.413,440.155 354.247,441.655 342,442.5C 327.98,441.474 323.98,434.474 330,421.5C 331.255,420.789 332.421,419.956 333.5,419C 359.696,416.69 385.362,411.69 410.5,404C 417.556,403.212 424.556,403.545 431.5,405C 440.157,408.327 448.823,411.66 457.5,415C 462.713,416.702 468.046,417.869 473.5,418.5C 476.387,418.373 478.887,417.373 481,415.5C 481.667,411.167 481.667,406.833 481,402.5C 478.794,392.757 475.461,383.423 471,374.5C 468.674,365.631 468.007,356.631 469,347.5C 482.312,304.733 486.312,261.067 481,216.5C 479.05,198.368 475.05,180.701 469,163.5C 468.178,155.445 468.512,147.445 470,139.5C 474.462,129.448 478.129,119.114 481,108.5C 481.667,104.167 481.667,99.8333 481,95.5C 478.887,93.627 476.387,92.627 473.5,92.5C 460.141,94.5641 447.474,98.7307 435.5,105C 425.58,107.828 415.58,108.162 405.5,106C 381.45,98.2306 356.783,93.8972 331.5,93C 280.833,91 230.167,91 179.5,93C 154.217,93.8972 129.55,98.2306 105.5,106C 96.8333,108 88.1667,108 79.5,106C 68.7185,101.406 57.7185,97.4061 46.5,94C 42.5274,93.0023 38.5274,92.6689 34.5,93C 32.6711,93.2735 31.1711,94.1068 30,95.5C 29.3333,99.8333 29.3333,104.167 30,108.5C 33.071,119.38 36.7377,130.047 41,140.5C 43.7218,152.53 42.7218,164.197 38,175.5C 30.7095,182.314 23.7095,181.98 17,174.5C 16.1313,172.419 15.6313,170.253 15.5,168C 16.5623,163.523 17.5623,159.023 18.5,154.5C 13.4364,140.365 8.93635,126.032 5,111.5C 1.36287,78.804 15.8629,64.6373 48.5,69C 61.651,71.9392 74.3177,76.2725 86.5,82C 88.3333,82.1667 90.1667,82.3333 92,82.5C 103.869,79.9081 115.702,77.0747 127.5,74C 144.556,71.0767 161.556,68.9101 178.5,67.5 Z"/></g>
<g><path style="opacity:0.95" fill="#000000" d="M 88.5,164.5 C 101.271,162.442 107.105,167.776 106,180.5C 101.08,189.259 97.7469,198.592 96,208.5C 93.4568,225.757 91.7902,243.09 91,260.5C 87.3449,267.07 81.8449,269.237 74.5,267C 71.6667,265.5 69.5,263.333 68,260.5C 65.804,233.122 69.1373,206.455 78,180.5C 80.2948,174.208 83.7948,168.874 88.5,164.5 Z"/></g>
<g><path style="opacity:0.955" fill="#000000" d="M 10.5,243.5 C 17.8519,241.759 23.3519,244.092 27,250.5C 27.0135,283.609 32.0135,315.943 42,347.5C 42.6667,353.833 42.6667,360.167 42,366.5C 37.441,378.291 33.441,390.291 30,402.5C 26.1667,416 31,420.833 44.5,417C 55.8605,413.991 66.8605,409.991 77.5,405C 85.7697,403.463 94.103,403.13 102.5,404C 124.643,411.029 147.31,415.362 170.5,417C 201.818,418.186 233.152,418.853 264.5,419C 273.645,423.438 275.811,430.272 271,439.5C 269.421,441.041 267.587,442.208 265.5,443C 233.818,443.844 202.152,443.511 170.5,442C 146.258,440.752 122.592,436.418 99.5,429C 94.8333,428.333 90.1667,428.333 85.5,429C 73.0344,434.933 60.0344,439.266 46.5,442C 20.3393,446.152 6.33929,435.152 4.5,409C 5.80836,393.071 9.97503,377.905 17,363.5C 17.1667,361.333 17.3333,359.167 17.5,357C 14.4204,343.513 11.2537,330.013 8,316.5C 3.9656,294.664 2.63226,272.664 4,250.5C 5.69406,247.642 7.86073,245.309 10.5,243.5 Z"/></g>
</svg>
