<svg width="41" height="40" viewBox="0 0 41 40" fill="none" xmlns="http://www.w3.org/2000/svg">
<circle cx="20.8469" cy="19.949" r="19.949" fill="white"/>
<path d="M28.9075 13.5406C28.4645 13.0974 27.9385 12.7458 27.3596 12.5059C26.7807 12.266 26.1602 12.1426 25.5336 12.1426C24.9069 12.1426 24.2864 12.266 23.7075 12.5059C23.1286 12.7458 22.6026 13.0974 22.1596 13.5406L21.2402 14.46L20.3208 13.5406C19.426 12.6458 18.2123 12.143 16.9468 12.143C15.6813 12.143 14.4677 12.6458 13.5728 13.5406C12.678 14.4354 12.1753 15.6491 12.1753 16.9146C12.1753 18.1801 12.678 19.3937 13.5728 20.2885L21.2402 27.9559L28.9075 20.2885C29.3507 19.8455 29.7023 19.3196 29.9422 18.7406C30.1821 18.1617 30.3055 17.5412 30.3055 16.9146C30.3055 16.2879 30.1821 15.6674 29.9422 15.0885C29.7023 14.5096 29.3507 13.9836 28.9075 13.5406Z" stroke="#235984" stroke-width="2.60204" stroke-linecap="round" stroke-linejoin="round"/>
</svg>

