<?xml version="1.0" encoding="utf-8"?><svg viewBox="0 0 117 59" xmlns="http://www.w3.org/2000/svg" xmlns:xlink="http://www.w3.org/1999/xlink"><style>:root>svg{display:none}:root>svg:target{display:block}</style><svg fill="none" viewBox="0 0 20 14" id="css--burger" xmlns="http://www.w3.org/2000/svg"><path d="M19 5H5m14-4H1m18 8H1m18 4H5" stroke="#235984" stroke-width="2" stroke-linecap="round" stroke-linejoin="round"/></svg><svg fill="none" viewBox="0 0 117 59" id="css--logo" xmlns="http://www.w3.org/2000/svg"><path fill-rule="evenodd" clip-rule="evenodd" d="M11.153.052C9.05.442 7.34 1.335 5.755 2.87 4.1 4.474 3.05 6.598 2.07 10.33 1.342 13.095.537 18.796.33 22.65a465.6 465.6 0 01-.268 4.414c-.25 3.829.271 11.994 1.103 17.27 1.458 9.24 3.638 13.424 7.56 14.51.623.173 1.958.196 6.115.104 6.834-.152 81.419-.156 88.609-.005 4.885.102 5.557.084 6.445-.178 1.38-.405 2.215-.935 3.19-2.024 1.804-2.016 2.793-5.09 3.694-11.479.33-2.342.281-10.827-.082-14.09-.815-7.333-1.977-12.52-3.64-16.247-2.094-4.692-5.763-7.202-12.499-8.55-4.19-.84-5.691-.939-13.965-.922-7.431.015-8.805.073-19.335.822-9.14.65-10.872.767-12.807.862-1.137.055-2.326.132-2.645.17-.318.04-3.65.12-7.405.181-7.348.119-8.17.066-11.434-.733-2.019-.494-5.36-1.69-8.18-2.927C20.917 2.129 17.86.944 16.293.536c-1.515-.395-4.238-.651-5.14-.484zm4.38 3.683c1.399.384 4.405 1.504 6.04 2.252 1.919.877 2.547 1.142 4.711 1.983 4.021 1.564 7.2 2.401 10.519 2.772 2.23.249 7.77.22 13.35-.07 4.72-.245 5.886-.32 14.792-.942 9.201-.643 11.241-.768 16.443-1.007 14.487-.667 22.96.786 26.733 4.586 2.653 2.672 4.44 8.8 5.405 18.537.302 3.041.309 10.21.014 13.014-.255 2.414-.739 5.054-1.188 6.476-.435 1.375-1.392 3.105-2.004 3.62l-.571.48H59.349c-33.884 0-50.536-.057-50.758-.173-2.107-1.095-3.902-7.087-4.816-16.077-.353-3.472-.403-14.357-.082-17.972C4.447 12.72 5.806 7.493 7.797 5.43c1.531-1.586 2.677-2.072 4.926-2.091.905-.008 1.79.117 2.81.396z" fill="#235984"/><path d="M13.824 38a.603.603 0 01-.444-.18.603.603 0 01-.18-.444v-8.124c0-.184.06-.332.18-.444.12-.12.268-.18.444-.18.24 0 .424.112.552.336l3.756 7.524h-.384l3.66-7.524c.128-.224.312-.336.552-.336.176 0 .324.06.444.18.12.112.18.26.18.444v8.124a.584.584 0 01-.192.444.59.59 0 01-.432.18.603.603 0 01-.444-.18.603.603 0 01-.18-.444V30.98l.24-.06-3.144 6.408c-.136.208-.316.312-.54.312-.264 0-.456-.124-.576-.372l-3.108-6.228.24-.06v6.396c0 .176-.06.324-.18.444a.603.603 0 01-.444.18zm11.753 0a.574.574 0 01-.516-.288.618.618 0 01-.036-.612l3.372-8.052c.12-.28.316-.42.588-.42.288 0 .484.14.588.42l3.384 8.076c.088.224.072.428-.048.612-.112.176-.284.264-.516.264a.692.692 0 01-.348-.096.624.624 0 01-.228-.288l-2.976-7.392h.336l-3.024 7.392a.595.595 0 01-.252.288.61.61 0 01-.324.096zm.636-2.064l.48-1.032h4.704l.48 1.032h-5.664zM37.158 38a.603.603 0 01-.444-.18.603.603 0 01-.18-.444v-8.748h1.248v8.748c0 .176-.06.324-.18.444a.603.603 0 01-.444.18zm-3.216-8.22a.593.593 0 01-.42-.156.593.593 0 01-.156-.42.552.552 0 01.576-.576h6.42a.53.53 0 01.408.168.53.53 0 01.168.408.552.552 0 01-.576.576h-6.42zM46.052 38a.603.603 0 01-.445-.18.603.603 0 01-.18-.444v-8.748h1.248v8.748c0 .176-.06.324-.18.444a.603.603 0 01-.444.18zm-3.217-8.22a.593.593 0 01-.42-.156.593.593 0 01-.156-.42.552.552 0 01.576-.576h6.42a.53.53 0 01.408.168.53.53 0 01.168.408.552.552 0 01-.576.576h-6.42zM52.797 38a.603.603 0 01-.444-.18.603.603 0 01-.18-.444v-8.124c0-.184.06-.332.18-.444.12-.12.268-.18.444-.18h2.16c.6 0 1.132.128 1.596.384.464.248.824.592 1.08 1.032.264.44.396.952.396 1.536a2.69 2.69 0 01-1.476 2.448c-.464.24-.996.36-1.596.36H53.42v2.988c0 .176-.06.324-.18.444a.579.579 0 01-.444.18zm4.98 0a.688.688 0 01-.312-.072.622.622 0 01-.228-.228l-2.16-3.48 1.212-.348 1.968 3.168c.144.232.164.452.06.66-.104.2-.284.3-.54.3zm-4.356-4.764h1.536a2.2 2.2 0 00.972-.204c.28-.144.5-.34.66-.588.16-.256.24-.544.24-.864 0-.352-.08-.664-.24-.936a1.682 1.682 0 00-.66-.636 2.005 2.005 0 00-.972-.228H53.42v3.456zM61.339 38a.603.603 0 01-.444-.18.603.603 0 01-.18-.444v-8.124c0-.184.06-.332.18-.444.12-.12.268-.18.444-.18h5.424a.6.6 0 01.444.168.545.545 0 01.168.42.53.53 0 01-.168.408.626.626 0 01-.444.156h-4.8v2.916h3.444a.6.6 0 01.444.168.53.53 0 01.168.408.57.57 0 01-.168.42.626.626 0 01-.444.156h-3.444v3h4.8c.184 0 .332.052.444.156a.53.53 0 01.168.408c0 .176-.056.32-.168.432a.626.626 0 01-.444.156h-5.424zm11.714.12c-.512 0-1-.08-1.464-.24a3.793 3.793 0 01-1.212-.672 2.645 2.645 0 01-.756-.996.486.486 0 010-.468c.088-.144.232-.236.432-.276a.562.562 0 01.42.072.696.696 0 01.324.336c.096.2.252.384.468.552.224.168.492.304.804.408.312.104.64.156.984.156.384 0 .736-.06 1.056-.18.328-.12.592-.292.792-.516.2-.232.3-.516.3-.852 0-.424-.168-.804-.504-1.14-.328-.336-.872-.544-1.632-.624-.992-.096-1.772-.388-2.34-.876-.568-.488-.852-1.092-.852-1.812 0-.528.148-.976.444-1.344.296-.368.696-.648 1.2-.84a4.82 4.82 0 011.704-.288c.488 0 .912.068 1.272.204.368.136.688.324.96.564.272.24.508.524.708.852.112.176.156.344.132.504a.472.472 0 01-.228.36.561.561 0 01-.492.06.677.677 0 01-.396-.312 1.99 1.99 0 00-1.116-.96 2.422 2.422 0 00-.876-.144c-.592-.008-1.088.104-1.488.336-.4.224-.6.572-.6 1.044 0 .24.06.472.18.696.128.216.356.404.684.564.336.16.816.272 1.44.336.952.096 1.692.388 2.22.876.536.48.804 1.116.804 1.908 0 .456-.096.852-.288 1.188-.184.336-.436.62-.756.852a3.357 3.357 0 01-1.08.504c-.4.112-.816.168-1.248.168zm9.222 0c-.512 0-1-.08-1.464-.24a3.793 3.793 0 01-1.212-.672 2.645 2.645 0 01-.756-.996.486.486 0 010-.468c.088-.144.232-.236.432-.276a.562.562 0 01.42.072.696.696 0 01.324.336c.096.2.252.384.468.552.224.168.492.304.804.408.312.104.64.156.984.156.384 0 .736-.06 1.056-.18.328-.12.592-.292.792-.516.2-.232.3-.516.3-.852 0-.424-.168-.804-.504-1.14-.328-.336-.872-.544-1.632-.624-.992-.096-1.772-.388-2.34-.876-.568-.488-.852-1.092-.852-1.812 0-.528.148-.976.444-1.344.296-.368.696-.648 1.2-.84a4.82 4.82 0 011.704-.288c.488 0 .912.068 1.272.204.368.136.688.324.96.564.272.24.508.524.708.852.112.176.156.344.132.504a.472.472 0 01-.228.36.561.561 0 01-.492.06.677.677 0 01-.396-.312 1.99 1.99 0 00-1.116-.96 2.422 2.422 0 00-.876-.144c-.592-.008-1.088.104-1.488.336-.4.224-.6.572-.6 1.044 0 .24.06.472.18.696.128.216.356.404.684.564.336.16.816.272 1.44.336.952.096 1.692.388 2.22.876.536.48.804 1.116.804 1.908 0 .456-.096.852-.288 1.188-.184.336-.436.62-.756.852a3.357 3.357 0 01-1.08.504c-.4.112-.816.168-1.248.168zm6.87-.12a.603.603 0 01-.444-.18.603.603 0 01-.18-.444v-8.124c0-.184.06-.332.18-.444.12-.12.268-.18.444-.18h5.424a.6.6 0 01.444.168.545.545 0 01.168.42.53.53 0 01-.168.408.626.626 0 01-.444.156h-4.8v2.916h3.444a.6.6 0 01.444.168.53.53 0 01.168.408.57.57 0 01-.168.42.626.626 0 01-.444.156h-3.444v3h4.8c.184 0 .332.052.444.156a.53.53 0 01.168.408c0 .176-.056.32-.168.432a.626.626 0 01-.444.156h-5.424zm11.714.12c-.512 0-1-.08-1.464-.24a3.793 3.793 0 01-1.212-.672 2.645 2.645 0 01-.756-.996.486.486 0 010-.468c.088-.144.232-.236.432-.276a.562.562 0 01.42.072.696.696 0 01.324.336c.096.2.252.384.468.552.224.168.492.304.804.408.312.104.64.156.984.156.384 0 .736-.06 1.056-.18.328-.12.592-.292.792-.516.2-.232.3-.516.3-.852 0-.424-.168-.804-.504-1.14-.328-.336-.872-.544-1.632-.624-.992-.096-1.772-.388-2.34-.876-.568-.488-.852-1.092-.852-1.812 0-.528.148-.976.444-1.344.296-.368.696-.648 1.2-.84a4.82 4.82 0 011.704-.288c.488 0 .912.068 1.272.204.368.136.688.324.96.564.272.24.508.524.708.852.112.176.156.344.132.504a.472.472 0 01-.228.36.561.561 0 01-.492.06.677.677 0 01-.396-.312 1.99 1.99 0 00-1.116-.96 2.422 2.422 0 00-.876-.144c-.592-.008-1.088.104-1.488.336-.4.224-.6.572-.6 1.044 0 .24.06.472.18.696.128.216.356.404.684.564.336.16.816.272 1.44.336.952.096 1.692.388 2.22.876.536.48.804 1.116.804 1.908 0 .456-.096.852-.288 1.188-.184.336-.436.62-.756.852a3.357 3.357 0 01-1.08.504c-.4.112-.816.168-1.248.168z" fill="#235984"/><path d="M13.38 37.82l-.354.354.354-.354zm0-9.012l.341.366.006-.006.007-.006-.354-.354zm.996.156l.447-.223-.006-.013-.007-.012-.434.248zm3.756 7.524v.5h.808l-.36-.723-.448.223zm-.384 0l-.45-.219-.35.719h.8v-.5zm3.66-7.524l-.434-.248-.008.014-.008.015.45.219zm.996-.156l-.354.354.006.006.007.006.341-.366zm-.012 9.012l-.342-.365-.006.006-.006.005.354.354zm-1.056-6.84l-.121-.485-.379.095v.39h.5zm.24-.06l.449.22.474-.966-1.044.26.121.486zm-3.144 6.408l.419.274.016-.026.014-.028-.449-.22zm-1.116-.06l.45-.218-.003-.005-.447.223zm-3.108-6.228l-.121-.485-.604.151.278.557.447-.223zm.24-.06h.5v-.64l-.621.155.121.485zm-.624 6.52c-.049 0-.068-.011-.09-.034l-.708.708c.218.217.495.326.798.326v-1zm-.09-.034c-.023-.022-.034-.041-.034-.09h-1c0 .303.109.58.326.798l.708-.708zm-.034-.09v-8.124h-1v8.124h1zm0-8.124c0-.037.006-.055.008-.061a.044.044 0 01.013-.017l-.682-.732a1.077 1.077 0 00-.339.81h1zm.034-.09c.022-.023.041-.034.09-.034v-1c-.303 0-.58.109-.798.326l.708.708zm.09-.034c.04 0 .053.008.058.011.007.004.03.02.06.073l.868-.496c-.209-.366-.55-.588-.986-.588v1zm.105.06l3.756 7.523.894-.446-3.756-7.524-.894.446zm4.203 6.8h-.384v1h.384v-1zm.066.719l3.66-7.524-.9-.438-3.66 7.524.9.438zm3.644-7.495a.194.194 0 01.06-.073c.005-.003.019-.011.058-.011v-1c-.435 0-.777.222-.986.588l.868.496zm.118-.084c.049 0 .068.011.09.034l.708-.708a1.103 1.103 0 00-.798-.326v1zm.103.046c.008.007.01.012.013.017a.165.165 0 01.008.061h1a1.08 1.08 0 00-.339-.81l-.682.732zm.021.078v8.124h1v-8.124h-1zm0 8.124c0 .038-.007.054-.034.08l.684.729c.23-.215.35-.495.35-.809h-1zm-.046.09c-.027.028-.044.034-.078.034v1c.302 0 .573-.114.786-.326l-.708-.708zm-.078.034c-.049 0-.068-.011-.09-.034l-.708.708c.218.217.495.326.798.326v-1zm-.09-.034c-.023-.022-.034-.041-.034-.09h-1c0 .303.109.58.326.798l.708-.708zm-.034-.09V30.98h-1v6.396h1zm-.379-5.91l.24-.06-.242-.971-.24.06.242.97zm-.33-.766l-3.144 6.408.898.44 3.144-6.408-.898-.44zm-3.113 6.354a.225.225 0 01-.07.075.099.099 0 01-.052.011v1c.413 0 .742-.207.959-.538l-.837-.548zm-.122.086c-.051 0-.067-.01-.07-.013-.005-.003-.028-.018-.056-.077l-.9.436c.092.19.225.36.413.481.189.122.4.173.613.173v-1zm-.129-.095l-3.108-6.228-.894.446 3.108 6.228.894-.446zm-3.434-5.52l.24-.06-.242-.97-.24.06.242.97zm-.381-.545v6.396h1V30.98h-1zm0 6.396c0 .049-.011.068-.034.09l.708.708c.217-.218.326-.495.326-.798h-1zm-.034.09c-.022.023-.041.034-.09.034v1c.303 0 .58-.109.798-.326l-.708-.708zm11.147.246l-.424.265.424-.265zm-.036-.612l.457.203.004-.01-.46-.193zm3.372-8.052l-.46-.197-.001.004.461.193zm1.176 0l-.469.174.004.01.004.01.461-.194zm3.384 8.076l.466-.183-.005-.01-.46.193zm-.048.612l-.419-.273-.003.005.422.268zm-.864.168l-.285.411.018.012.019.011.248-.434zm-.228-.288l.464-.186-.464.186zm-2.976-7.392v-.5h-.74l.276.687.464-.187zm.336 0l.463.19.282-.69h-.745v.5zm-3.024 7.392l.458.2.005-.01-.463-.19zm-.252.288l-.248-.434-.007.004-.007.004.262.426zm.312-1.968l-.453-.21-.33.71h.783v-.5zm.48-1.032v-.5h-.319l-.134.29.453.21zm4.704 0l.453-.21-.134-.29h-.319v.5zm.48 1.032v.5h.784l-.33-.71-.454.21zm-6.3 1.564c-.039 0-.052-.008-.053-.009-.002 0-.017-.009-.039-.044l-.848.53c.21.336.541.523.94.523v-1zm-.092-.053a.13.13 0 01-.024-.061c0-.011 0-.036.021-.083l-.914-.406c-.16.36-.144.74.07 1.08l.847-.53zm.001-.154l3.372-8.052-.922-.386-3.372 8.052.922.386zm3.37-8.048c.034-.078.063-.1.069-.105.002-.002.014-.012.06-.012v-1c-.226 0-.448.06-.642.198-.19.136-.319.323-.405.525l.919.394zm.13-.117c.03 0 .05.004.059.007a.036.036 0 01.012.005c.001 0 .006.004.014.015s.02.032.033.067l.938-.348a1.15 1.15 0 00-.403-.548 1.107 1.107 0 00-.654-.198v1zm.126.113l3.384 8.076.922-.386-3.384-8.076-.922.386zm3.38 8.066c.035.09.02.122-.002.156l.838.546c.218-.334.235-.71.094-1.068l-.93.366zm-.005.16a.092.092 0 01-.014.018.023.023 0 01-.005.004.173.173 0 01-.075.011v1c.38 0 .722-.157.938-.496l-.844-.536zm-.094.033a.194.194 0 01-.1-.03l-.496.868c.182.104.383.162.596.162v-1zm-.063-.007a.125.125 0 01-.049-.063l-.928.372c.083.209.22.384.407.513l.57-.822zm-.05-.064l-2.975-7.392-.928.374 2.976 7.392.928-.374zm-3.439-6.705h.336v-1h-.336v1zm-.127-.69l-3.024 7.393.926.378 3.024-7.392-.926-.378zm-3.019 7.382c-.017.038-.031.048-.042.054l.496.868c.213-.122.367-.304.462-.522l-.916-.4zm-.056.062c-.033.02-.05.022-.062.022v1c.213 0 .41-.062.586-.17l-.524-.852zm1.027-1.331l.48-1.032-.906-.422-.48 1.032.906.422zm.027-.743h4.704v-1h-4.704v1zm4.25-.29l.48 1.033.907-.422-.48-1.032-.906.422zm.934.322h-5.664v1h5.664v-1zm4.837 2.384l-.354.354.354-.354zm-.18-9.192v-.5h-.5v.5h.5zm1.248 0h.5v-.5h-.5v.5zm-.18 9.192l.353.354-.353-.354zm-4.08-8.196l-.367.34.013.014.013.012.34-.366zm0-.828l-.354-.354.354.354zm7.248 0l-.367.34.013.014.013.012.34-.366zm0 .828l.353.354-.353-.354zM37.158 37.5c-.05 0-.068-.011-.09-.034l-.708.708c.218.217.495.326.798.326v-1zm-.09-.034c-.023-.022-.034-.041-.034-.09h-1c0 .303.108.58.326.798l.707-.708zm-.034-.09v-8.748h-1v8.748h1zm-.5-8.248h1.248v-1h-1.248v1zm.748-.5v8.748h1v-8.748h-1zm0 8.748c0 .049-.011.068-.034.09l.707.708c.218-.218.327-.495.327-.798h-1zm-.034.09c-.022.023-.041.034-.09.034v1c.303 0 .58-.109.797-.326l-.707-.708zm-3.306-8.186c-.056 0-.07-.013-.08-.022l-.68.732c.213.2.479.29.76.29v-1zm-.054.004c-.01-.01-.022-.025-.022-.08h-1c0 .28.09.546.29.76l.732-.68zm-.022-.08c0-.032.005-.047.006-.05v-.001l.001-.001.002-.002-.707-.708a1.05 1.05 0 00-.302.762h1zm.01-.054c.011-.012.021-.022.066-.022v-1a1.07 1.07 0 00-.774.314l.707.708zm.066-.022h6.42v-1h-6.42v1zm6.42 0l.029.002.008.002.004.004.733-.68a1.03 1.03 0 00-.774-.328v1zm.067.034a.044.044 0 01.004.004l.002.009a.169.169 0 01.003.029h1a1.03 1.03 0 00-.328-.774l-.68.732zm.009.042c0 .044-.01.054-.022.066l.707.708a1.07 1.07 0 00.315-.774h-1zm-.022.066a.025.025 0 01-.002.003h-.001l-.002.001a.147.147 0 01-.05.006v1c.28 0 .55-.091.762-.302l-.707-.708zm-.054.01h-6.42v1h6.42v-1zm5.245 8.54l-.353.354.353-.354zm-.18-9.192v-.5h-.5v.5h.5zm1.248 0h.5v-.5h-.5v.5zm-.18 9.192l.354.354-.354-.354zm-4.08-8.196l-.366.34.012.014.014.012.34-.366zm0-.828l-.353-.354.353.354zm7.248 0l-.366.34.012.014.014.012.34-.366zm0 .828l.354.354-.354-.354zM46.051 37.5c-.049 0-.068-.011-.09-.034l-.707.708c.217.217.494.326.797.326v-1zm-.09-.034c-.023-.022-.034-.041-.034-.09h-1c0 .303.11.58.327.798l.707-.708zm-.034-.09v-8.748h-1v8.748h1zm-.5-8.248h1.248v-1h-1.248v1zm.748-.5v8.748h1v-8.748h-1zm0 8.748c0 .049-.01.068-.033.09l.707.708c.217-.218.326-.495.326-.798h-1zm-.033.09c-.023.023-.042.034-.09.034v1c.302 0 .58-.109.797-.326l-.707-.708zm-3.307-8.186c-.055 0-.07-.013-.08-.022l-.68.732c.214.2.48.29.76.29v-1zm-.053.004c-.01-.01-.023-.025-.023-.08h-1c0 .28.091.546.29.76l.733-.68zm-.023-.08c0-.032.005-.047.006-.05l.001-.001v-.001l.003-.002-.707-.708a1.05 1.05 0 00-.303.762h1zm.01-.054c.012-.012.022-.022.066-.022v-1a1.07 1.07 0 00-.773.314l.707.708zm.066-.022h6.42v-1h-6.42v1zm6.42 0a.169.169 0 01.038.004l.004.004.733-.68a1.03 1.03 0 00-.775-.328v1zm.068.034a.044.044 0 01.004.005l.002.008a.169.169 0 01.002.029h1a1.03 1.03 0 00-.328-.774l-.68.732zm.008.042c0 .044-.01.054-.021.066l.707.708a1.07 1.07 0 00.314-.774h-1zm-.021.066a.025.025 0 01-.003.003l-.002.001a.146.146 0 01-.05.006v1c.28 0 .55-.091.762-.302l-.707-.708zm-.055.01h-6.42v1h6.42v-1zm3.098 8.54l-.354.354.354-.354zm0-9.012l.341.366.006-.006.006-.006-.353-.354zm4.2.204l-.242.438.006.003.236-.441zm1.08 1.032l-.432.252.003.005.429-.257zm0 2.988l-.425-.264-.003.006.428.258zm-1.08.996l.23.444-.23-.444zm-3.132.36v-.5h-.5v.5h.5zm-.18 3.432l-.354-.354-.006.006-.006.007.366.341zm4.224.108l-.24.439.008.004.008.004.224-.447zm-.228-.228l.426-.262-.001-.002-.425.264zm-2.16-3.48l-.138-.48-.636.182.349.562.425-.264zm1.212-.348l.425-.264-.2-.32-.363.103.138.481zm1.968 3.168l.425-.264-.425.264zm.06.66l.444.23.003-.006-.447-.224zm-4.896-4.464h-.5v.5h.5v-.5zm2.508-.204l.218.45.01-.005-.228-.445zm.66-.588l.42.271.004-.006-.424-.265zm-.66-2.436l-.239.44.239-.44zm-2.508-.228v-.5h-.5v.5h.5zm-.624 7.72c-.05 0-.068-.011-.09-.034l-.708.708c.218.217.495.326.798.326v-1zm-.09-.034c-.023-.022-.034-.041-.034-.09h-1c0 .303.109.58.326.798l.707-.708zm-.034-.09v-8.124h-1v8.124h1zm0-8.124c0-.037.006-.055.008-.061a.044.044 0 01.013-.017l-.682-.732a1.077 1.077 0 00-.34.81h1zm.033-.09c.023-.023.042-.034.09-.034v-1c-.302 0-.58.109-.797.326l.707.708zm.09-.034h2.16v-1h-2.16v1zm2.16 0c.528 0 .975.112 1.355.322l.483-.876c-.547-.302-1.164-.446-1.837-.446v1zm1.361.325c.385.206.676.485.884.842l.864-.502a3.186 3.186 0 00-1.276-1.222l-.472.882zm.887.848c.211.352.325.773.325 1.279h1c0-.662-.15-1.265-.467-1.793l-.858.514zm.325 1.279c0 .46-.11.85-.32 1.188l.848.528a3.19 3.19 0 00.472-1.716h-1zm-.324 1.194a2.16 2.16 0 01-.882.81l.46.888c.54-.28.971-.674 1.278-1.182l-.856-.516zm-.882.81c-.383.198-.834.304-1.366.304v1c.668 0 1.28-.134 1.825-.416l-.459-.888zm-1.366.304H53.42v1h1.536v-1zm-2.036.5v2.988h1v-2.988h-1zm0 2.988c0 .049-.011.068-.034.09l.707.708c.218-.218.327-.495.327-.798h-1zm-.046.103a.045.045 0 01-.017.013.167.167 0 01-.061.008v1c.304 0 .59-.105.81-.339l-.732-.682zm4.902.021a.19.19 0 01-.089-.02l-.447.895c.169.084.35.125.536.125v-1zm-.073-.01c.004.001-.013-.006-.041-.052l-.852.524c.1.162.235.307.414.405l.48-.878zm-.042-.054l-2.16-3.48-.85.528 2.16 3.48.85-.528zm-2.447-2.735l1.212-.348-.276-.962-1.212.348.276.962zm.65-.565l1.967 3.168.85-.528-1.968-3.168-.85.528zm1.967 3.168c.071.114.05.149.038.172l.894.448c.196-.393.134-.798-.082-1.148l-.85.528zm.041.165c-.006.013-.01.018-.011.018h-.001c0 .001-.006.004-.018.007a.299.299 0 01-.066.006v1c.192 0 .39-.038.57-.138.183-.102.32-.253.413-.431l-.887-.462zm-4.452-3.733h1.536v-1H53.42v1zm1.536 0c.43 0 .83-.08 1.19-.254l-.437-.9a1.69 1.69 0 01-.753.154v1zm1.2-.26c.353-.18.641-.434.852-.76l-.84-.543c-.11.17-.261.308-.469.414l.457.89zm.856-.767c.212-.34.316-.721.316-1.129h-1c0 .232-.057.427-.164.599l.848.53zm.316-1.129c0-.43-.099-.832-.31-1.19l-.861.508c.11.186.17.409.17.682h1zm-.31-1.19a2.182 2.182 0 00-.852-.821l-.477.878c.201.11.354.258.468.45l.862-.506zm-.852-.821a2.503 2.503 0 00-1.21-.289v1c.297 0 .537.061.733.167l.477-.878zm-1.21-.289H53.42v1h1.536v-1zm-2.036.5v3.456h1V29.78h-1zm7.974 8.04l-.354.354.354-.354zm0-9.012l.341.366.006-.006.006-.006-.353-.354zm6.312-.012l-.354.354.007.006.007.006.34-.366zm0 .828l.34.366-.34-.366zm-5.244.156v-.5h-.5v.5h.5zm0 2.916h-.5v.5h.5v-.5zm3.888.168l-.354.354.007.006.007.006.34-.366zm0 .828l.34.366.007-.006.006-.006-.353-.354zm-3.888.156v-.5h-.5v.5h.5zm0 3h-.5v.5h.5v-.5zm5.244.156l.34-.366-.34.366zm0 .84l.34.366.007-.006.006-.006-.353-.354zm-5.868-.344c-.049 0-.068-.011-.09-.034l-.708.708c.218.217.495.326.798.326v-1zm-.09-.034c-.023-.022-.034-.041-.034-.09h-1c0 .303.109.58.326.798l.707-.708zm-.034-.09v-8.124h-1v8.124h1zm0-8.124c0-.037.006-.055.008-.061a.045.045 0 01.013-.017l-.682-.732a1.078 1.078 0 00-.34.81h1zm.033-.09c.023-.023.042-.034.09-.034v-1c-.302 0-.58.109-.797.326l.707.708zm.09-.034h5.425v-1h-5.424v1zm5.425 0c.074 0 .087.018.09.022l.707-.708a1.099 1.099 0 00-.797-.314v1zm.104.034l.001.002c.001.003.007.017.007.052h1c0-.292-.098-.573-.328-.786l-.68.732zm.008.054a.16.16 0 01-.004.038h-.001l-.003.004.68.732a1.03 1.03 0 00.328-.774h-1zm-.008.042c-.002 0-.02.022-.104.022v1c.283 0 .561-.083.784-.29l-.68-.732zm-.104.022h-4.8v1h4.8v-1zm-5.3.5v2.916h1V29.78h-1zm.5 3.416h3.444v-1h-3.444v1zm3.444 0c.074 0 .087.019.09.022l.707-.708a1.099 1.099 0 00-.797-.314v1zm.104.034a.03.03 0 01.003.004l.003.009a.16.16 0 01.002.029h1a1.03 1.03 0 00-.328-.774l-.68.732zm.008.042c0 .044-.01.054-.022.066l.707.708a1.07 1.07 0 00.315-.774h-1zm-.008.054c-.002 0-.02.022-.104.022v1c.283 0 .561-.083.784-.29l-.68-.732zm-.104.022h-3.444v1h3.444v-1zm-3.944.5v3h1v-3h-1zm.5 3.5h4.8v-1h-4.8v1zm4.8 0c.085 0 .102.021.104.022l.68-.732a1.125 1.125 0 00-.784-.29v1zm.104.022a.03.03 0 01.003.004l.003.009a.16.16 0 01.002.029h1a1.03 1.03 0 00-.328-.774l-.68.732zm.008.042c0 .06-.014.071-.022.078l.707.708c.217-.217.315-.493.315-.786h-1zm-.008.066c-.002 0-.02.022-.104.022v1c.283 0 .561-.083.784-.29l-.68-.732zm-.104.022h-5.424v1h5.424v-1zm4.826.38l.163-.473-.163.473zm-1.212-.672l-.32.383.32-.383zm-.756-.996l.46-.196-.004-.01-.004-.009-.452.215zm0-.468l-.426-.26-.006.008-.005.01.437.242zm.432-.276l.098.49.01-.002-.108-.488zm.42.072l-.253.431.014.009.016.007.223-.447zm.324.336l-.452.214.001.002.451-.216zm.468.552l-.307.395.007.005.3-.4zm.804.408l-.158.474.158-.474zm2.04-.024l-.172-.47-.003.002.175.468zm.792-.516l.373.333.006-.006-.379-.327zm-.204-1.992l-.358.35.005.004.353-.354zm-1.632-.624l.053-.497h-.005l-.048.497zm-2.34-.876l.326-.38-.326.38zm.792-3.996l-.175-.468h-.003l.178.468zm2.976-.084l-.176.468.003.001.173-.469zm.96.564l-.33.375.33-.375zm.708.852l-.427.26.005.008.422-.268zm.132.504l-.494-.074-.002.01-.001.012.497.052zm-.228.36l.267.423.005-.003-.272-.42zm-.492.06l-.151.477.151-.477zm-.396-.312l-.438.242.005.009.433-.251zm-.468-.588l.328-.377-.328.377zm-.648-.372l-.18.466.006.003.007.002.167-.471zm-.876-.144l-.007.5h.007v-.5zm-1.488.336l.245.436.006-.004-.25-.432zm-.42 1.74l-.44.236.004.01.006.009.43-.255zm.684.564l-.219.45.004.001.215-.451zm1.44.336l-.05.497.05-.497zm2.22.876l-.34.367.007.006.333-.373zm.516 3.096l-.434-.248-.004.008.438.24zm-.756.852l.292.406.002-.001-.294-.405zm-1.08.504l-.132-.482h-.003l.135.482zm-1.248-.332c-.459 0-.891-.072-1.3-.213l-.327.946a4.96 4.96 0 001.627.267v-1zm-1.3-.213a3.293 3.293 0 01-1.055-.582l-.642.766a4.29 4.29 0 001.37.762l.326-.946zm-1.055-.582a2.145 2.145 0 01-.617-.809l-.92.392c.194.455.497.85.895 1.183l.642-.766zm-.625-.828a.163.163 0 01-.011-.029v.001c0 .004-.001.01-.003.014 0 .005-.002.006 0 .004l-.875-.486a.984.984 0 00-.014.926l.903-.43zm-.025.008a.046.046 0 01.016-.017.257.257 0 01.087-.03l-.196-.98c-.306.06-.585.218-.76.505l.853.522zm.114-.049a.048.048 0 01.02-.001c.004 0 .016.003.038.016l.507-.862a1.062 1.062 0 00-.782-.13l.217.977zm.088.031c.039.02.069.047.095.103l.904-.428a1.197 1.197 0 00-.552-.57l-.447.895zm.096.105c.137.285.35.526.612.73l.614-.789a1.079 1.079 0 01-.324-.373l-.902.432zm.62.736c.273.205.59.364.945.482l.316-.948a2.312 2.312 0 01-.662-.334l-.6.8zm.945.482a3.59 3.59 0 001.142.182v-1c-.293 0-.567-.044-.826-.13l-.316.948zm1.142.182c.437 0 .85-.068 1.232-.212l-.351-.936a2.487 2.487 0 01-.88.148v1zm1.228-.21a2.42 2.42 0 00.993-.653l-.746-.666a1.426 1.426 0 01-.59.38l.343.939zm.999-.66a1.76 1.76 0 00.421-1.178h-1a.762.762 0 01-.178.525l.757.654zm.421-1.178c0-.573-.233-1.076-.65-1.494l-.707.708c.254.254.357.511.357.786h1zm-.646-1.49c-.447-.457-1.13-.686-1.938-.771l-.104.994c.712.075 1.117.262 1.326.476l.716-.698zm-1.942-.772c-.923-.089-1.594-.355-2.062-.757l-.652.758c.669.574 1.557.892 2.618.995l.096-.996zm-2.062-.757c-.463-.398-.678-.865-.678-1.433h-1c0 .872.353 1.613 1.026 2.191l.652-.758zm-.678-1.433c0-.428.118-.762.334-1.03l-.78-.627c-.375.467-.554 1.03-.554 1.657h1zm.334-1.03c.233-.29.555-.522.988-.687l-.356-.934c-.575.219-1.052.547-1.411.994l.779.626zm.986-.686a4.323 4.323 0 011.528-.256v-1c-.675 0-1.304.104-1.88.32l.352.936zm1.528-.256c.443 0 .805.062 1.096.172l.353-.936c-.43-.162-.916-.236-1.449-.236v1zm1.099.173c.315.116.58.274.802.47l.662-.75a3.512 3.512 0 00-1.118-.658l-.346.938zm.802.47c.233.205.437.45.612.737l.854-.52a4.184 4.184 0 00-.804-.967l-.662.75zm.617.745c.067.105.061.152.06.162l.989.148c.046-.31-.047-.599-.205-.846l-.844.536zm.057.184c0 .003 0 .003 0 0a.053.053 0 01.006-.011l.004-.006-.012.01.543.839a.97.97 0 00.453-.728l-.994-.104zm.002-.01c-.019.011-.028.012-.03.013a.105.105 0 01-.043-.008l-.303.954c.312.099.63.063.91-.114l-.534-.846zm-.073.005c-.064-.02-.093-.047-.115-.085l-.865.5c.153.266.389.447.677.539l.303-.954zm-.11-.076a2.64 2.64 0 00-.578-.724l-.656.754c.136.119.256.267.358.453l.876-.483zm-.578-.724a2.49 2.49 0 00-.809-.466l-.334.942c.194.069.354.163.487.278l.656-.754zm-.795-.461a2.918 2.918 0 00-1.057-.178v1c.29 0 .518.042.696.11l.36-.932zm-1.05-.178c-.657-.009-1.248.115-1.746.404l.502.864c.303-.175.704-.275 1.23-.268l.014-1zm-1.74.4a1.65 1.65 0 00-.638.616 1.71 1.71 0 00-.217.864h1c0-.164.034-.28.084-.366a.654.654 0 01.26-.242l-.488-.872zm-.855 1.48c0 .327.083.64.24.932l.88-.472a.957.957 0 01-.12-.46h-1zm.25.95c.196.331.517.575.895.76l.438-.9c-.278-.135-.412-.267-.473-.369l-.86.51zm.9.761c.41.196.956.316 1.603.382l.102-.994c-.6-.062-1.015-.166-1.276-.29l-.43.902zm1.604.383c.88.088 1.505.352 1.93.745l.68-.734c-.63-.583-1.485-.903-2.51-1.007l-.1.995zm1.937.75c.418.375.637.87.637 1.536h1c0-.918-.317-1.695-.97-2.28l-.667.745zm.637 1.536c0 .385-.08.692-.222.94l.868.496c.243-.424.354-.909.354-1.436h-1zm-.226.948a2.065 2.065 0 01-.611.687l.587.81c.378-.274.68-.614.9-1.017l-.876-.48zm-.61.686c-.259.186-.564.33-.92.428l.264.964c.46-.126.875-.318 1.24-.58l-.583-.812zm-.923.428c-.354.1-.725.15-1.113.15v1c.476 0 .937-.062 1.383-.186l-.27-.963zm6.645.41l.163-.473-.163.473zm-1.212-.672l-.321.383.32-.383zm-.756-.996l.46-.196-.004-.01-.005-.009-.451.215zm0-.468l-.427-.26-.005.008-.005.01.437.242zm.432-.276l.098.49.01-.002-.108-.488zm.42.072l-.254.431.015.009.015.007.224-.447zm.324.336l-.452.214.001.002.45-.216zm.468.552l-.307.395.007.005.3-.4zm.804.408l-.158.474.158-.474zm2.04-.024l-.172-.47-.004.002.176.468zm.792-.516l.373.333.006-.006-.38-.327zm-.204-1.992l-.358.35.004.004.354-.354zm-1.632-.624l.052-.497h-.004l-.048.497zm-2.34-.876l.326-.38-.326.38zm.792-3.996l-.176-.468h-.002l.178.468zm2.976-.084l-.177.468.004.001.173-.469zm.96.564l-.33.375.33-.375zm.708.852l-.427.26.005.008.422-.268zm.132.504l-.495-.074-.001.01-.001.012.497.052zm-.228.36l.267.423.004-.003-.271-.42zm-.492.06l-.152.477.152-.477zm-.396-.312l-.438.242.005.009.433-.251zm-.468-.588l.328-.377-.328.377zm-.648-.372l-.18.466.006.003.007.002.167-.471zm-.876-.144l-.007.5h.007v-.5zm-1.488.336l.244.436.007-.004-.251-.432zm-.42 1.74l-.44.236.004.01.006.009.43-.255zm.684.564l-.22.45.005.001.215-.451zm1.44.336l-.051.497.05-.497zm2.22.876l-.34.367.006.006.334-.373zm.516 3.096l-.434-.248-.005.008.439.24zm-.756.852l.291.406.002-.001-.293-.405zm-1.08.504l-.132-.482h-.003l.135.482zm-1.248-.332c-.459 0-.892-.072-1.301-.213l-.326.946a4.96 4.96 0 001.627.267v-1zm-1.301-.213a3.293 3.293 0 01-1.054-.582l-.642.766a4.29 4.29 0 001.37.762l.326-.946zm-1.054-.582a2.145 2.145 0 01-.617-.809l-.92.392c.194.455.496.85.895 1.183l.642-.766zm-.626-.828a.163.163 0 01-.01-.029c-.002-.004-.001-.003-.001.001s0 .01-.002.014l-.001.004-.874-.486a.984.984 0 00-.015.926l.903-.43zm-.025.008a.047.047 0 01.017-.017.257.257 0 01.087-.03l-.196-.98c-.306.06-.585.218-.76.505l.852.522zm.114-.049a.048.048 0 01.02-.001c.005 0 .017.003.038.016l.507-.862a1.062 1.062 0 00-.782-.13l.217.977zm.088.031c.04.02.07.047.096.103l.904-.428a1.197 1.197 0 00-.553-.57l-.447.895zm.097.105c.136.285.349.526.612.73l.614-.789a1.077 1.077 0 01-.324-.373l-.902.432zm.619.736c.274.205.591.364.946.482l.316-.948a2.313 2.313 0 01-.662-.334l-.6.8zm.946.482a3.59 3.59 0 001.142.182v-1c-.293 0-.567-.044-.826-.13l-.316.948zm1.142.182a3.47 3.47 0 001.231-.212l-.35-.936a2.487 2.487 0 01-.881.148v1zm1.228-.21c.392-.144.73-.358.993-.653l-.746-.666a1.425 1.425 0 01-.59.38l.343.939zm.999-.66c.286-.331.42-.735.42-1.178h-1a.761.761 0 01-.178.525l.758.654zm.42-1.178c0-.573-.232-1.076-.65-1.494l-.707.708c.255.254.358.511.358.786h1zm-.645-1.49c-.447-.457-1.13-.686-1.938-.771l-.104.994c.711.075 1.117.262 1.326.476l.716-.698zm-1.942-.772c-.923-.089-1.594-.355-2.062-.757l-.652.758c.668.574 1.557.892 2.618.995l.096-.996zm-2.062-.757c-.463-.398-.678-.865-.678-1.433h-1c0 .872.353 1.613 1.026 2.191l.652-.758zm-.678-1.433c0-.428.117-.762.334-1.03l-.78-.627c-.376.467-.554 1.03-.554 1.657h1zm.334-1.03c.232-.29.555-.522.988-.687l-.356-.934c-.575.219-1.053.547-1.412.994l.78.626zm.986-.686a4.322 4.322 0 011.528-.256v-1c-.676 0-1.304.104-1.88.32l.352.936zm1.528-.256c.443 0 .805.062 1.095.172l.354-.936c-.43-.162-.916-.236-1.45-.236v1zm1.099.173c.314.116.58.274.802.47l.662-.75a3.512 3.512 0 00-1.118-.658l-.346.938zm.802.47c.232.205.437.45.612.737l.854-.52a4.182 4.182 0 00-.804-.967l-.662.75zm.617.745c.067.105.06.152.06.162l.988.148c.047-.31-.047-.599-.204-.846l-.844.536zm.057.184c0 .003-.001.003 0 0a.053.053 0 01.005-.011l.005-.006-.013.01.543.839a.97.97 0 00.454-.728l-.994-.104zm.002-.01c-.02.011-.028.012-.03.013a.105.105 0 01-.043-.008l-.304.954c.313.099.63.063.91-.114l-.533-.846zm-.073.005c-.065-.02-.093-.047-.115-.085l-.866.5c.154.266.39.447.677.539l.303-.954zm-.11-.076a2.64 2.64 0 00-.578-.724l-.656.754c.136.119.256.267.358.453l.876-.483zm-.578-.724a2.49 2.49 0 00-.809-.466l-.334.942c.193.069.354.163.487.278l.656-.754zm-.796-.461a2.918 2.918 0 00-1.056-.178v1c.29 0 .518.042.695.11l.361-.932zm-1.05-.178c-.657-.009-1.248.115-1.745.404l.502.864c.302-.175.704-.275 1.23-.268l.014-1zm-1.738.4a1.65 1.65 0 00-.64.616 1.71 1.71 0 00-.216.864h1c0-.164.034-.28.083-.366a.654.654 0 01.261-.242l-.488-.872zm-.856 1.48c0 .327.083.64.24.932l.88-.472a.957.957 0 01-.12-.46h-1zm.25.95c.195.331.517.575.895.76l.438-.9c-.278-.135-.413-.267-.473-.369l-.86.51zm.899.761c.411.196.956.316 1.604.382l.102-.994c-.6-.062-1.015-.166-1.276-.29l-.43.902zm1.605.383c.88.088 1.505.352 1.93.745l.68-.734c-.631-.583-1.486-.903-2.51-1.007l-.1.995zm1.936.75c.42.375.638.87.638 1.536h1c0-.918-.317-1.695-.97-2.28l-.668.745zm.638 1.536c0 .385-.08.692-.222.94l.868.496c.242-.424.354-.909.354-1.436h-1zm-.227.948a2.065 2.065 0 01-.61.687l.586.81c.378-.274.68-.614.901-1.017l-.877-.48zm-.609.686c-.259.186-.564.33-.92.428l.264.964c.46-.126.875-.318 1.24-.58l-.584-.812zm-.923.428c-.354.1-.725.15-1.113.15v1c.476 0 .937-.062 1.383-.186l-.27-.963zm5.313.35l-.354.354.354-.354zm0-9.012l.34.366.007-.006.006-.006-.353-.354zm6.312-.012l-.354.354.007.006.006.006.34-.366zm0 .828l.34.366-.34-.366zm-5.244.156v-.5h-.5v.5h.5zm0 2.916h-.5v.5h.5v-.5zm3.888.168l-.354.354.007.006.006.006.34-.366zm0 .828l.34.366.007-.006.006-.006-.353-.354zm-3.888.156v-.5h-.5v.5h.5zm0 3h-.5v.5h.5v-.5zm5.244.156l.34-.366-.34.366zm0 .84l.34.366.007-.006.006-.006-.353-.354zm-5.868-.344c-.05 0-.068-.011-.09-.034l-.708.708c.218.217.495.326.798.326v-1zm-.09-.034c-.023-.022-.034-.041-.034-.09h-1c0 .303.108.58.326.798l.707-.708zm-.034-.09v-8.124h-1v8.124h1zm0-8.124c0-.037.006-.055.008-.061a.044.044 0 01.013-.017l-.683-.732a1.078 1.078 0 00-.338.81h1zm.033-.09c.023-.023.042-.034.09-.034v-1c-.303 0-.58.109-.797.326l.707.708zm.09-.034h5.425v-1h-5.424v1zm5.425 0c.074 0 .087.018.09.022l.707-.708a1.099 1.099 0 00-.797-.314v1zm.103.034l.002.002c.001.003.007.017.007.052h1c0-.292-.099-.573-.328-.786l-.68.732zm.009.054a.169.169 0 01-.005.038l-.004.004.68.732a1.03 1.03 0 00.329-.774h-1zm-.009.042s-.018.022-.103.022v1c.283 0 .561-.083.784-.29l-.68-.732zm-.103.022h-4.8v1h4.8v-1zm-5.3.5v2.916h1V29.78h-1zm.5 3.416h3.444v-1h-3.444v1zm3.444 0c.074 0 .087.019.09.022l.707-.708a1.099 1.099 0 00-.797-.314v1zm.103.034a.044.044 0 01.004.004l.002.009a.169.169 0 01.003.029h1a1.03 1.03 0 00-.328-.774l-.68.732zm.009.042c0 .044-.01.054-.022.066l.707.708a1.07 1.07 0 00.315-.774h-1zm-.009.054s-.018.022-.103.022v1c.283 0 .561-.083.784-.29l-.68-.732zm-.103.022h-3.444v1h3.444v-1zm-3.944.5v3h1v-3h-1zm.5 3.5h4.8v-1h-4.8v1zm4.8 0c.085 0 .102.021.103.022l.68-.732a1.125 1.125 0 00-.783-.29v1zm.103.022a.044.044 0 01.004.004l.002.009a.169.169 0 01.003.029h1a1.03 1.03 0 00-.328-.774l-.68.732zm.009.042c0 .06-.014.071-.022.078l.707.708c.217-.217.315-.493.315-.786h-1zm-.009.066s-.018.022-.103.022v1c.283 0 .561-.083.784-.29l-.68-.732zm-.103.022h-5.424v1h5.424v-1zm4.826.38l.163-.473-.163.473zm-1.212-.672l-.321.383.321-.383zm-.756-.996l.46-.196-.004-.01-.005-.009-.451.215zm0-.468l-.427-.26-.005.008-.005.01.437.242zm.432-.276l.098.49.01-.002-.108-.488zm.42.072l-.254.431.015.009.015.007.224-.447zm.324.336l-.452.214.001.002.451-.216zm.468.552l-.307.395.007.005.3-.4zm.804.408l-.158.474.158-.474zm2.04-.024l-.172-.47-.004.002.176.468zm.792-.516l.373.333.006-.006-.379-.327zm-.204-1.992l-.358.35.004.004.354-.354zm-1.632-.624l.052-.497h-.004l-.048.497zm-2.34-.876l.326-.38-.326.38zm.792-3.996l-.176-.468h-.002l.178.468zm2.976-.084l-.177.468.004.001.173-.469zm.96.564l-.331.375.331-.375zm.708.852l-.427.26.005.008.422-.268zm.132.504l-.495-.074-.001.01-.001.012.497.052zm-.228.36l.267.423.005-.003-.272-.42zm-.492.06l-.152.477.152-.477zm-.396-.312l-.438.242.005.009.433-.251zm-.468-.588l.328-.377-.328.377zm-.648-.372l-.181.466.007.003.007.002.167-.471zm-.876-.144l-.007.5h.007v-.5zm-1.488.336l.244.436.007-.004-.251-.432zm-.42 1.74l-.44.236.004.01.006.009.43-.255zm.684.564l-.22.45.005.001.215-.451zm1.44.336l-.051.497h.001l.05-.497zm2.22.876l-.339.367.005.006.334-.373zm.516 3.096l-.434-.248-.005.008.439.24zm-.756.852l.292.406.001-.001-.293-.405zm-1.08.504l-.132-.482h-.003l.135.482zm-1.248-.332c-.459 0-.892-.072-1.301-.213l-.326.946a4.96 4.96 0 001.627.267v-1zm-1.301-.213a3.295 3.295 0 01-1.054-.582l-.642.766a4.29 4.29 0 001.37.762l.326-.946zm-1.054-.582a2.146 2.146 0 01-.617-.809l-.92.392c.194.455.496.85.895 1.183l.642-.766zm-.626-.828a.154.154 0 01-.01-.029c-.002-.004-.001-.003-.001.001s0 .01-.002.014l-.001.004-.874-.486a.984.984 0 00-.014.926l.902-.43zm-.024.008a.046.046 0 01.016-.017.255.255 0 01.087-.03l-.196-.98c-.306.06-.585.218-.76.505l.853.522zm.113-.049a.048.048 0 01.02-.001c.005 0 .017.003.038.016l.507-.862a1.062 1.062 0 00-.781-.13l.216.977zm.088.031c.04.02.07.047.096.103l.904-.428a1.196 1.196 0 00-.552-.57l-.448.895zm.097.105c.137.285.349.526.612.73l.614-.789a1.077 1.077 0 01-.324-.373l-.902.432zm.619.736c.274.205.591.364.946.482l.316-.948a2.313 2.313 0 01-.662-.334l-.6.8zm.946.482a3.59 3.59 0 001.142.182v-1c-.293 0-.567-.044-.826-.13l-.316.948zm1.142.182c.437 0 .849-.068 1.232-.212l-.352-.936a2.485 2.485 0 01-.88.148v1zm1.228-.21c.392-.144.73-.358.993-.653l-.746-.666a1.423 1.423 0 01-.591.38l.344.939zm.999-.66c.286-.331.421-.735.421-1.178h-1a.761.761 0 01-.179.525l.758.654zm.421-1.178c0-.573-.233-1.076-.65-1.494l-.708.708c.255.254.358.511.358.786h1zm-.646-1.49c-.447-.457-1.129-.686-1.938-.771l-.104.994c.711.075 1.117.262 1.326.476l.716-.698zm-1.942-.772c-.923-.089-1.594-.355-2.062-.757l-.652.758c.668.574 1.557.892 2.618.995l.096-.996zm-2.062-.757c-.463-.398-.678-.865-.678-1.433h-1c0 .872.353 1.613 1.026 2.191l.652-.758zm-.678-1.433c0-.428.117-.762.334-1.03l-.78-.627c-.376.467-.554 1.03-.554 1.657h1zm.334-1.03c.232-.29.555-.522.988-.687l-.356-.934c-.575.219-1.052.547-1.412.994l.78.626zm.986-.686a4.324 4.324 0 011.528-.256v-1c-.676 0-1.304.104-1.88.32l.352.936zm1.528-.256c.443 0 .805.062 1.095.172l.354-.936c-.43-.162-.916-.236-1.449-.236v1zm1.099.173c.315.116.58.274.802.47l.662-.75a3.517 3.517 0 00-1.118-.658l-.346.938zm.802.47c.232.205.437.45.612.737l.854-.52a4.19 4.19 0 00-.804-.967l-.662.75zm.617.745c.067.105.061.152.059.162l.989.148c.047-.31-.047-.599-.204-.846l-.844.536zm.057.184c-.001.003-.001.003 0 0a.037.037 0 01.006-.011l.004-.006-.013.01.544.839a.97.97 0 00.453-.728l-.994-.104zm.002-.01c-.019.011-.028.012-.031.013a.102.102 0 01-.042-.008l-.304.954c.313.099.63.063.911-.114l-.534-.846zm-.073.005c-.065-.02-.093-.047-.115-.085l-.866.5c.154.266.39.447.677.539l.304-.954zm-.11-.076a2.641 2.641 0 00-.578-.724l-.656.754c.136.119.256.267.358.453l.876-.483zm-.578-.724a2.484 2.484 0 00-.809-.466l-.334.942c.193.069.354.163.487.278l.656-.754zm-.796-.461a2.913 2.913 0 00-1.056-.178v1c.29 0 .518.042.695.11l.361-.932zm-1.049-.178c-.658-.009-1.249.115-1.746.404l.502.864c.303-.175.704-.275 1.23-.268l.014-1zm-1.74.4a1.65 1.65 0 00-.638.616 1.71 1.71 0 00-.217.864h1c0-.164.034-.28.084-.366a.654.654 0 01.26-.242l-.488-.872zm-.855 1.48c0 .327.083.64.24.932l.88-.472a.957.957 0 01-.12-.46h-1zm.25.95c.195.331.517.575.895.76l.438-.9c-.278-.135-.413-.267-.473-.369l-.86.51zm.899.761c.411.196.957.316 1.604.382l.102-.994c-.601-.062-1.015-.166-1.276-.29l-.43.902zm1.605.383c.879.088 1.505.352 1.931.745l.678-.734c-.63-.583-1.484-.903-2.509-1.007l-.1.995zm1.936.75c.419.375.638.87.638 1.536h1c0-.918-.317-1.695-.97-2.28l-.668.745zm.638 1.536c0 .385-.08.692-.222.94l.868.496c.242-.424.354-.909.354-1.436h-1zm-.227.948a2.062 2.062 0 01-.611.687l.587.81a3.07 3.07 0 00.902-1.017l-.878-.48zm-.609.686c-.259.186-.564.33-.92.428l.264.964c.46-.126.875-.318 1.24-.58l-.584-.812zm-.923.428c-.354.1-.725.15-1.113.15v1c.476 0 .937-.062 1.383-.186l-.27-.963z" fill="#235984"/></svg><svg fill="none" viewBox="0 0 20 20" id="css--search" xmlns="http://www.w3.org/2000/svg"><path d="M19 19l-4.35-4.35M17 9A8 8 0 111 9a8 8 0 0116 0z" stroke="#235984" stroke-width="2" stroke-linecap="round" stroke-linejoin="round"/></svg><svg fill="none" viewBox="0 0 25 23" id="sprite--cart" xmlns="http://www.w3.org/2000/svg"><path d="M1.903 1h4l2.68 13.39a2 2 0 002 1.61h9.72a2 2 0 002-1.61l1.6-8.39h-17m4 15a1 1 0 11-2 0 1 1 0 012 0zm11 0a1 1 0 11-2 0 1 1 0 012 0z"/></svg><svg fill="none" viewBox="0 0 23 21" id="sprite--like" xmlns="http://www.w3.org/2000/svg"><path d="M20.291 2.996a5.5 5.5 0 00-7.78 0l-1.06 1.06-1.06-1.06a5.501 5.501 0 00-7.78 7.78l8.84 8.84 8.84-8.84a5.5 5.5 0 000-7.78z"/></svg><svg viewBox="0 0 24 24" fill="none" id="sprite--phone" xmlns="http://www.w3.org/2000/svg"><path d="M21 5.5C21 14.06 14.06 21 5.5 21a15.7 15.7 0 01-1.148-.042c-.435-.032-.653-.048-.851-.162a1.06 1.06 0 01-.402-.432C3 20.158 3 19.918 3 19.438v-2.817c0-.404 0-.606.066-.779a1 1 0 01.278-.396c.14-.122.33-.191.71-.329l3.206-1.166c.442-.16.662-.24.872-.227a1 1 0 01.513.182c.171.121.292.322.534.725L10 16a12.1 12.1 0 006-6l-1.369-.821c-.402-.242-.604-.363-.725-.534a1 1 0 01-.182-.513c-.014-.21.066-.43.227-.872l1.166-3.207c.138-.38.207-.569.329-.709a1 1 0 01.396-.278C16.015 3 16.217 3 16.621 3h2.817c.48 0 .72 0 .926.1.17.081.338.237.432.401.114.198.13.416.162.85.028.38.042.763.042 1.149z"/></svg><svg fill="none" viewBox="0 0 18 21" id="sprite--profile" xmlns="http://www.w3.org/2000/svg"><path d="M17 19.5v-2a4 4 0 00-4-4H5a4 4 0 00-4 4v2m12-14a4 4 0 11-8 0 4 4 0 018 0z"/></svg></svg>