<svg version="1.1" id="Capa_1" xmlns="http://www.w3.org/2000/svg" xmlns:xlink="http://www.w3.org/1999/xlink" x="0px" y="0px" viewBox="0 0 511.997 511.997" style="enable-background:new 0 0 511.997 511.997;" xml:space="preserve"><g><g><path d="M135.005,165.806c-0.576-3.57-3.662-6.299-7.395-6.299c-3.733,0-6.819,2.729-7.395,6.299 c-3.571,0.575-6.3,3.662-6.3,7.395c0,3.733,2.729,6.82,6.3,7.395c0.576,3.571,3.662,6.3,7.395,6.3c3.733,0,6.82-2.729,7.395-6.3 c3.571-0.576,6.3-3.662,6.3-7.395C141.305,169.468,138.576,166.382,135.005,165.806z"></path></g></g><g><g><path d="M197.502,165.806c-0.576-3.57-3.662-6.299-7.395-6.299c-3.733,0-6.819,2.729-7.395,6.299 c-3.571,0.575-6.3,3.662-6.3,7.395c0,3.733,2.73,6.82,6.3,7.395c1.349,8.367,13.444,8.357,14.791,0 C205.87,179.248,205.859,167.153,197.502,165.806z"></path></g></g><g><g><path d="M329.285,165.806c-0.576-3.57-3.662-6.299-7.395-6.299c-3.733,0-6.819,2.729-7.395,6.299 c-3.57,0.576-6.299,3.662-6.299,7.395c0,3.733,2.729,6.819,6.299,7.395c0.575,3.571,3.662,6.3,7.395,6.3 c3.733,0,6.82-2.729,7.395-6.3c3.571-0.576,6.3-3.662,6.3-7.395C335.585,169.468,332.855,166.382,329.285,165.806z"></path></g></g><g><g><path d="M391.782,165.806c-0.576-3.57-3.662-6.299-7.395-6.299c-3.733,0-6.819,2.729-7.395,6.299 c-3.57,0.576-6.299,3.662-6.299,7.395c0,3.733,2.729,6.819,6.299,7.395c0.576,3.571,3.662,6.3,7.395,6.3 c3.733,0,6.82-2.729,7.395-6.3C400.149,179.248,400.139,167.153,391.782,165.806z"></path></g></g><g><g><path d="M496.28,236.195c-3.53-7.642-8.716-14.248-15.026-19.442v-85.07c0-4.143-3.358-7.5-7.5-7.5c-4.143,0-7.5,3.357-7.5,7.5 v76.221c-12.016-4.699-21.058-3.715-33.778-3.732c6.931-11.604,3.35-20.563,4.325-46.256c0-5.346-1.377-10.376-3.791-14.757 c0.083-0.076,0.169-0.145,0.249-0.225l5.798-5.798c2.929-2.93,2.929-7.678,0-10.607c-2.93-2.928-7.678-2.928-10.607,0 l-5.653,5.653c-4.806-3.126-10.532-4.95-16.68-4.95c-107.979,1.123-108.293-2.538-119.814,3.321l-4.024-4.024 c-2.93-2.928-7.678-2.928-10.607,0c-2.929,2.93-2.929,7.678,0,10.607l3.294,3.294c-3.457,4.965-5.491,10.991-5.491,17.486 c0.976,25.712-2.604,34.656,4.325,46.256h-35.604c6.931-11.604,3.35-20.563,4.325-46.256c0-6.094-1.793-11.774-4.869-16.554 l4.226-4.226c2.929-2.93,2.929-7.678,0-10.607c-2.93-2.928-7.678-2.928-10.607,0l-4.561,4.561 c-4.409-2.454-9.479-3.858-14.873-3.858H105.881c-5.745,0-11.124,1.59-15.727,4.349l-5.052-5.052 c-2.93-2.928-7.678-2.928-10.607,0c-2.929,2.93-2.929,7.678,0,10.607l5.052,5.052c-2.759,4.603-4.35,9.982-4.35,15.728v30.571 c0,5.728,1.582,11.091,4.325,15.684c-12.915,0.071-21.69-0.996-33.778,3.732V90.861c0-15.901,12.938-28.838,28.839-28.838h362.834 c15.901,0,28.839,12.937,28.839,28.838v5.822c0,4.143,3.357,7.5,7.5,7.5c4.142,0,7.5-3.357,7.5-7.5v-5.822 c0-24.172-19.666-43.838-43.839-43.838H74.582c-24.173,0-43.839,19.666-43.839,43.838v125.891 c-6.31,5.194-11.496,11.8-15.027,19.444C6.676,238.657,0,246.917,0,256.727c0,13.936,0,123.713,0,140 c0,10.63,7.837,19.441,18.031,21.021l-6.599,16.843c-5.719,14.599,5.106,30.383,20.721,30.383c9.227,0,17.363-5.552,20.729-14.143 l12.853-32.806c14.402,0,287.837,0,301.153,0c4.143,0,7.5-3.357,7.5-7.5c0-4.142-3.357-7.5-7.5-7.5H77.707 c-2.2-16.635-16.466-29.517-33.692-29.517H15v-64.045h95.11c4.143,0,7.5-3.357,7.5-7.5c0-4.142-3.357-7.5-7.5-7.5H15v-37.736 c0-3.932,3.398-5.633,3.298-5.537c2.314-1.259,472.944-0.739,473.044-0.729c3.173,0.323,5.657,3.011,5.657,6.266v37.736H145.11 c-4.143,0-7.5,3.358-7.5,7.5c0,4.143,3.357,7.5,7.5,7.5h351.889v64.045h-29.017c-17.226,0-31.491,12.883-33.692,29.517h-32.403 c-4.143,0-7.5,3.358-7.5,7.5c0,4.143,3.357,7.5,7.5,7.5c6.038,0,40.872,0,44.376,0l12.852,32.805 c3.365,8.592,11.502,14.144,20.729,14.144c2.781,0,5.513-0.518,8.116-1.538c11.427-4.479,17.08-17.418,12.603-28.844 l-6.599-16.844c10.196-1.58,18.033-10.391,18.033-21.021c0-15.766,0-123.628,0-140 C511.999,246.916,505.323,238.657,496.28,236.195z M38.915,445.36c-1.098,2.803-3.752,4.614-6.762,4.614 c-5.078,0-8.62-5.147-6.754-9.911l8.634-22.037h15.591L38.915,445.36z M44.016,388.507L44.016,388.507 c8.933,0.001,16.444,6.198,18.463,14.518c-10.401,0-30.791,0-41.18,0c-3.474,0-6.299-2.825-6.299-6.299v-8.219H44.016z M284.476,157.917c0-8.648,7.036-15.685,15.685-15.685h105.957c8.648,0,15.685,7.036,15.685,15.685v30.571 c0,8.648-7.036,15.684-15.685,15.684H300.16c-8.648,0-15.684-7.036-15.684-15.684V157.917z M90.196,157.917 c0-8.648,7.036-15.685,15.685-15.685h105.956c8.648,0,15.685,7.036,15.685,15.685v30.571c0,8.648-7.036,15.684-15.685,15.684 H105.881c-8.649,0-15.685-7.036-15.685-15.684V157.917z M33.515,235.428c7.091-9.566,18.124-15.551,29.931-16.19 c2.632-0.145,383.871-0.082,385.504,0.023c11.815,0.772,22.604,6.82,29.533,16.167H33.515z M482.488,449.47 c-0.854,0.334-1.742,0.504-2.643,0.504c-3.01,0-5.665-1.811-6.763-4.615l-10.709-27.333h15.591l8.634,22.038 C488.059,443.789,486.215,448.009,482.488,449.47z M496.998,396.727c0,3.257-2.483,5.943-5.656,6.266 c-0.211,0.022-0.426,0.033-0.643,0.033c-15.012,0-27.414,0-41.18,0c2.019-8.32,9.531-14.518,18.463-14.518h29.016V396.727z"></path></g></g></svg>